<mxfile host="app.diagrams.net" modified="2021-12-17T14:07:16.163Z" agent="5.0 (Windows NT 10.0; Win64; x64) AppleWebKit/537.36 (KHTML, like Gecko) Chrome/96.0.4664.110 Safari/537.36" etag="Jj0E1699dkmyh9skznpH" version="15.9.6" type="github">
  <diagram id="JrdtRLm4HKefdivwlOJu" name="Page-1">
    <mxGraphModel dx="1422" dy="799" grid="1" gridSize="10" guides="1" tooltips="1" connect="1" arrows="1" fold="1" page="1" pageScale="1" pageWidth="1169" pageHeight="827" math="0" shadow="0">
      <root>
        <mxCell id="0" />
        <mxCell id="1" parent="0" />
        <mxCell id="IhF_CEtlNz-WRDGSU4EQ-22" value="" style="edgeStyle=orthogonalEdgeStyle;rounded=0;orthogonalLoop=1;jettySize=auto;html=1;" parent="1" source="IhF_CEtlNz-WRDGSU4EQ-1" target="IhF_CEtlNz-WRDGSU4EQ-2" edge="1">
          <mxGeometry relative="1" as="geometry" />
        </mxCell>
        <mxCell id="IhF_CEtlNz-WRDGSU4EQ-1" value="Lancement du site&amp;nbsp;&lt;span style=&quot;white-space: pre&quot;&gt; &lt;/span&gt;" style="rounded=0;whiteSpace=wrap;html=1;fillColor=#ffe6cc;strokeColor=#d79b00;" parent="1" vertex="1">
          <mxGeometry x="230" y="324" width="120" height="60" as="geometry" />
        </mxCell>
        <mxCell id="IhF_CEtlNz-WRDGSU4EQ-24" style="edgeStyle=orthogonalEdgeStyle;rounded=0;orthogonalLoop=1;jettySize=auto;html=1;exitX=1;exitY=1;exitDx=0;exitDy=0;entryX=0;entryY=0.5;entryDx=0;entryDy=0;" parent="1" source="IhF_CEtlNz-WRDGSU4EQ-2" target="IhF_CEtlNz-WRDGSU4EQ-10" edge="1">
          <mxGeometry relative="1" as="geometry" />
        </mxCell>
        <mxCell id="IhF_CEtlNz-WRDGSU4EQ-25" style="edgeStyle=orthogonalEdgeStyle;rounded=0;orthogonalLoop=1;jettySize=auto;html=1;exitX=1;exitY=0;exitDx=0;exitDy=0;entryX=0;entryY=0.5;entryDx=0;entryDy=0;" parent="1" source="IhF_CEtlNz-WRDGSU4EQ-2" target="IhF_CEtlNz-WRDGSU4EQ-9" edge="1">
          <mxGeometry relative="1" as="geometry" />
        </mxCell>
        <mxCell id="IhF_CEtlNz-WRDGSU4EQ-2" value="arrivé sur la page de connection&amp;nbsp;" style="rounded=0;whiteSpace=wrap;html=1;fillColor=#ffe6cc;strokeColor=#d79b00;" parent="1" vertex="1">
          <mxGeometry x="390" y="324" width="120" height="60" as="geometry" />
        </mxCell>
        <mxCell id="IhF_CEtlNz-WRDGSU4EQ-3" value="écran d&#39;inscription" style="rounded=0;whiteSpace=wrap;html=1;fillColor=#ffe6cc;strokeColor=#d79b00;" parent="1" vertex="1">
          <mxGeometry x="710" y="504" width="120" height="60" as="geometry" />
        </mxCell>
        <mxCell id="IhF_CEtlNz-WRDGSU4EQ-6" value="actualisation de la page pour réessayer&amp;nbsp;" style="rounded=0;whiteSpace=wrap;html=1;fillColor=#ffe6cc;strokeColor=#d79b00;" parent="1" vertex="1">
          <mxGeometry x="710" y="424" width="120" height="60" as="geometry" />
        </mxCell>
        <mxCell id="IhF_CEtlNz-WRDGSU4EQ-23" value="" style="edgeStyle=orthogonalEdgeStyle;rounded=0;orthogonalLoop=1;jettySize=auto;html=1;" parent="1" source="IhF_CEtlNz-WRDGSU4EQ-9" target="IhF_CEtlNz-WRDGSU4EQ-11" edge="1">
          <mxGeometry relative="1" as="geometry" />
        </mxCell>
        <mxCell id="IhF_CEtlNz-WRDGSU4EQ-9" value="Identifiants corrects&lt;br style=&quot;font-size: 10px;&quot;&gt;Pop-up &quot; logo de validation + accès a l&#39;outil de ticketing en cours&amp;nbsp;&amp;nbsp;" style="rounded=0;whiteSpace=wrap;html=1;fillColor=#ffe6cc;strokeColor=#d79b00;fontSize=10;" parent="1" vertex="1">
          <mxGeometry x="550" y="264" width="120" height="60" as="geometry" />
        </mxCell>
        <mxCell id="IhF_CEtlNz-WRDGSU4EQ-26" style="edgeStyle=orthogonalEdgeStyle;rounded=0;orthogonalLoop=1;jettySize=auto;html=1;exitX=1;exitY=0.5;exitDx=0;exitDy=0;entryX=0;entryY=0.5;entryDx=0;entryDy=0;" parent="1" source="IhF_CEtlNz-WRDGSU4EQ-10" target="IhF_CEtlNz-WRDGSU4EQ-12" edge="1">
          <mxGeometry relative="1" as="geometry" />
        </mxCell>
        <mxCell id="IhF_CEtlNz-WRDGSU4EQ-27" style="edgeStyle=orthogonalEdgeStyle;rounded=0;orthogonalLoop=1;jettySize=auto;html=1;exitX=1;exitY=0.5;exitDx=0;exitDy=0;" parent="1" source="IhF_CEtlNz-WRDGSU4EQ-10" edge="1">
          <mxGeometry relative="1" as="geometry">
            <mxPoint x="710" y="454" as="targetPoint" />
            <Array as="points">
              <mxPoint x="690" y="414" />
              <mxPoint x="690" y="454" />
              <mxPoint x="709" y="454" />
            </Array>
          </mxGeometry>
        </mxCell>
        <mxCell id="IhF_CEtlNz-WRDGSU4EQ-29" style="edgeStyle=orthogonalEdgeStyle;rounded=0;orthogonalLoop=1;jettySize=auto;html=1;exitX=1;exitY=0.5;exitDx=0;exitDy=0;fontSize=10;" parent="1" source="IhF_CEtlNz-WRDGSU4EQ-10" edge="1">
          <mxGeometry relative="1" as="geometry">
            <mxPoint x="710" y="534" as="targetPoint" />
            <Array as="points">
              <mxPoint x="690" y="414" />
              <mxPoint x="690" y="534" />
            </Array>
          </mxGeometry>
        </mxCell>
        <mxCell id="IhF_CEtlNz-WRDGSU4EQ-10" value="identifiants incorrects&lt;br style=&quot;font-size: 10px&quot;&gt;Pop-Up : &quot;identifiants incorrects ou mdp non valide + mdp oublié? / retry / inscription&quot;&amp;nbsp;" style="rounded=0;whiteSpace=wrap;html=1;fillColor=#ffe6cc;strokeColor=#d79b00;fontSize=10;" parent="1" vertex="1">
          <mxGeometry x="550" y="384" width="120" height="60" as="geometry" />
        </mxCell>
        <mxCell id="IhF_CEtlNz-WRDGSU4EQ-11" value="Connection" style="rounded=0;whiteSpace=wrap;html=1;fillColor=#ffe6cc;strokeColor=#d79b00;" parent="1" vertex="1">
          <mxGeometry x="710" y="264" width="120" height="60" as="geometry" />
        </mxCell>
        <mxCell id="IhF_CEtlNz-WRDGSU4EQ-12" value="si il clique sur mdp oublié : écran de réinitialisation du mdp via mail" style="rounded=0;whiteSpace=wrap;html=1;fillColor=#ffe6cc;strokeColor=#d79b00;" parent="1" vertex="1">
          <mxGeometry x="710" y="344" width="120" height="60" as="geometry" />
        </mxCell>
        <mxCell id="-h_fN4ounydbRBB80jiI-1" value="Méthodologie d&#39;écran d&#39;inscription / acceuil / connection" style="rounded=0;whiteSpace=wrap;html=1;fillColor=#f8cecc;strokeColor=#b85450;fontSize=21;" vertex="1" parent="1">
          <mxGeometry x="40" y="50" width="420" height="110" as="geometry" />
        </mxCell>
      </root>
    </mxGraphModel>
  </diagram>
</mxfile>
